<!DOCTYPE svg PUBLIC "-//W3C//DTD SVG 1.1//EN" "http://www.w3.org/Graphics/SVG/1.1/DTD/svg11.dtd">
<!-- Uploaded to: SVG Repo, www.svgrepo.com, Transformed by: SVG Repo Mixer Tools -->
<svg width="800px" height="800px" viewBox="-40 -40 480.00 480.00" fill="none" xmlns="http://www.w3.org/2000/svg">
<g id="SVGRepo_bgCarrier" stroke-width="0">
<path transform="translate(-40, -40), scale(15)" d="M16,28.659536480903625C18.945446117088338,28.727964428643364,22.300528923160527,31.23133994434969,24.626041812026713,29.422383058069677C27.013342031855498,27.565363390299712,25.77579727844291,23.669410494710533,26.254297872845214,20.682980926273387C26.594308644384117,18.560897414591945,26.811577962055964,16.551961009945803,27.030756911275372,14.414016589823568C27.33105668330655,11.484792664512451,29.411523112605064,8.24364407245671,27.780922912018205,5.791772186826643C26.193101081614635,3.4042245194370295,22.458336409882037,4.182157815723093,19.701613797180883,3.393461127644681C16.969005664761635,2.611663577929136,14.443099209679586,0.6644156720055149,11.64726383537075,1.175941989870406C8.769392220020087,1.702477666547054,6.4379759897055875,3.8479496515498486,4.63297882096378,6.150420080043649C2.882486182272787,8.383364045651955,1.351803438205276,11.113754129008273,1.64419404186064,13.935946710415848C1.9231002302237616,16.627985941043242,5.12334153473517,17.995738513846874,6.120860698389963,20.511651747502917C7.2053080674503285,23.246812721279102,5.357862252643553,27.155381444909835,7.627745414970592,29.027482424588666C9.827341576093616,30.84161374045545,13.149577125526172,28.593316091958446,16,28.659536480903625" fill="#7ed0ec" strokewidth="0"/>
</g>
<g id="SVGRepo_tracerCarrier" stroke-linecap="round" stroke-linejoin="round"/>
<g id="SVGRepo_iconCarrier"> <path d="M148.843 76.8171C157.626 72.1984 168.775 66.9306 178.786 69.8302C220.847 82.0123 197.657 156.357 155.112 142.22C117.073 129.58 126.517 88.2647 155.112 76.8171" stroke="#fff" stroke-opacity="0.9" stroke-width="16.4" stroke-linecap="round" stroke-linejoin="round"/> <path d="M189.009 170.885C185.643 229.448 184.699 290.596 197.944 348.172" stroke="#fff" stroke-opacity="0.9" stroke-width="16.4" stroke-linecap="round" stroke-linejoin="round"/> <path d="M188.095 255.836C198.532 286.619 218.959 311.55 232.417 340.786" stroke="#fff" stroke-opacity="0.9" stroke-width="16.4" stroke-linecap="round" stroke-linejoin="round"/> <path d="M185.632 347.186C181.786 347.725 178.243 349.324 174.551 350.392" stroke="#fff" stroke-opacity="0.9" stroke-width="16.4" stroke-linecap="round" stroke-linejoin="round"/> <path d="M233.649 343.248C227.721 343.6 222.641 347.487 217.644 349.404" stroke="#fff" stroke-opacity="0.9" stroke-width="16.4" stroke-linecap="round" stroke-linejoin="round"/> <path d="M193.018 165.961C215.997 150.561 243.294 153.98 269.351 148.725" stroke="#fff" stroke-opacity="0.9" stroke-width="16.4" stroke-linecap="round" stroke-linejoin="round"/> <path d="M269.85 122.87C267.239 136.442 267.737 143.671 270.564 154.88" stroke="#fff" stroke-opacity="0.9" stroke-width="16.4" stroke-linecap="round" stroke-linejoin="round"/> <path d="M189.325 165.961C164.672 189.825 138.374 223.503 136.385 255.836" stroke="#fff" stroke-opacity="0.9" stroke-width="16.4" stroke-linecap="round" stroke-linejoin="round"/> </g>
</svg>