<!DOCTYPE svg PUBLIC "-//W3C//DTD SVG 1.1//EN" "http://www.w3.org/Graphics/SVG/1.1/DTD/svg11.dtd">
<!-- Uploaded to: SVG Repo, www.svgrepo.com, Transformed by: SVG Repo Mixer Tools -->
<svg fill="#ffffff" version="1.1" id="Capa_1" xmlns="http://www.w3.org/2000/svg" xmlns:xlink="http://www.w3.org/1999/xlink" width="800px" height="800px" viewBox="0 0 97.097 97.096" xml:space="preserve" stroke="#ffffff">
<g id="SVGRepo_bgCarrier" stroke-width="0"/>
<g id="SVGRepo_iconCarrier"> <g> <path d="M97.05,25.977c-0.431,9.453-7.038,22.401-19.806,38.834C64.046,81.975,52.876,90.56,43.734,90.56 c-5.655,0-10.444-5.226-14.357-15.684c-2.613-9.585-5.227-19.161-7.838-28.746c-2.902-10.452-6.017-15.683-9.352-15.683 c-0.724,0-3.27,1.531-7.622,4.577L0,29.136c4.788-4.208,9.517-8.422,14.167-12.643c6.394-5.52,11.19-8.429,14.391-8.722 c7.557-0.725,12.208,4.446,13.954,15.502c1.886,11.938,3.191,19.361,3.922,22.264c2.176,9.902,4.576,14.849,7.19,14.849 c2.034,0,5.091-3.216,9.159-9.634c4.065-6.427,6.244-11.315,6.537-14.667c0.58-5.545-1.6-8.324-6.537-8.324 c-2.328,0-4.727,0.531-7.188,1.592c4.77-15.632,13.887-23.229,27.348-22.8C92.923,6.847,97.623,13.322,97.05,25.977z"/> </g> </g>
</svg>